<svg data-v-423bf9ae="" xmlns="http://www.w3.org/2000/svg" viewBox="0 0 235 107" class="iconLeft"><!----><!----><!----><g data-v-423bf9ae="" id="f5cd343f-7443-4981-985e-3bb94f18a7a1" fill="black" transform="matrix(5.6872042027481005,0,0,5.6872042027481005,101.68766030666382,3.5881468672380663)"><path d="M3.02 4.12C3.35 4.12 3.53 4.12 3.88 4.19C3.96 4.42 3.98 4.73 3.99 5.08C4.07 6.36 4.07 7.59 4.07 8.82C4.07 10.42 4.02 11.52 3.88 12.26C3.75 12.96 3.54 13.24 2.20 13.47C2.20 13.47 2.18 13.52 2.18 13.58C2.18 13.65 2.20 13.75 2.25 13.82C3.25 13.71 4.52 13.71 4.76 13.71C5.21 13.71 6.20 13.75 7.06 13.75C7.10 13.69 7.10 13.61 7.10 13.55C7.10 13.43 7.06 13.31 7.06 13.31C6.50 13.31 6.15 13.30 5.60 13.22C5.49 12.64 5.38 11.59 5.38 10.51L5.38 8.01C5.38 6.83 5.42 5.60 5.45 5.08C5.47 4.73 5.47 4.42 5.54 4.19C5.88 4.12 6.10 4.12 6.43 4.12C7.17 4.12 7.90 4.23 8.34 4.42C8.40 4.63 8.51 5.31 8.62 5.94C8.69 5.98 8.78 5.99 8.86 5.99C8.97 5.99 9.09 5.98 9.17 5.94C9.17 5.15 9.28 4.30 9.39 3.68C9.39 3.63 9.39 3.53 9.14 3.53C8.81 3.53 7.39 3.63 6.45 3.63L3.02 3.63C2.18 3.63 0.88 3.53 0.56 3.53C0.39 3.53 0.32 3.56 0.32 3.68C0.21 4.28 0.21 5.07 0.10 5.85C0.21 5.94 0.35 5.96 0.57 5.96L1.19 4.42C1.61 4.23 2.35 4.12 3.02 4.12ZM12.77 6.47C13.54 7.81 16.27 13.99 16.27 13.99L16.66 13.99C17.28 12.15 19.80 7.04 20.44 5.87L20.55 8.16C20.61 9.24 20.64 10.18 20.64 10.92C20.64 11.51 20.61 11.96 20.59 12.25C20.54 12.96 20.44 13.20 19.26 13.47C19.26 13.47 19.25 13.52 19.25 13.58C19.25 13.65 19.26 13.75 19.32 13.82C20.15 13.72 21.32 13.71 21.77 13.71C22.04 13.71 22.68 13.75 23.23 13.75C23.27 13.66 23.27 13.59 23.27 13.54C23.27 13.41 23.23 13.31 23.23 13.31C22.85 13.31 22.37 13.31 22.11 13.27C21.95 12.18 21.88 11.20 21.83 9.80C21.77 8.34 21.73 7.04 21.73 6.10C21.73 5.68 21.73 5.32 21.76 5.08C21.78 4.58 21.92 4.07 22.96 3.85C22.96 3.74 22.96 3.63 22.89 3.50C22.15 3.61 21.45 3.63 20.64 3.63C19.81 5.80 17.78 9.80 16.88 11.82C16.69 11.47 15.33 8.05 14.03 5.70C13.10 4.06 12.54 3.44 12.36 3.44C11.90 3.44 11.12 3.50 10.12 3.50C10.08 3.58 10.08 3.67 10.08 3.72C10.08 3.79 10.11 3.85 10.12 3.92C10.35 3.95 10.72 3.96 10.91 4.03C11.26 4.19 11.51 4.42 11.73 4.70C11.68 9.28 11.44 11.54 11.34 12.25C11.27 12.75 11.13 13.24 10.12 13.47C10.12 13.47 10.11 13.52 10.11 13.58C10.11 13.65 10.12 13.75 10.18 13.82C10.75 13.72 11.51 13.71 11.80 13.71C12.10 13.71 12.77 13.75 13.38 13.75C13.43 13.69 13.43 13.61 13.43 13.55C13.43 13.43 13.38 13.31 13.38 13.31C12.94 13.31 12.60 13.31 12.29 13.27C12.15 12.38 12.12 10.98 12.12 10.14C12.12 7.14 12.15 6.33 12.18 5.46C12.18 5.46 12.46 5.92 12.77 6.47Z"></path></g><!----><g data-v-423bf9ae="" id="65f781ff-3418-4488-b73b-f24d575822a2" transform="matrix(1.0868111504448785,0,0,1.0868111504448785,-13.255261890115804,-0.23894260335429607)" stroke="none" fill="black"><g clip-rule="evenodd"><path d="M12.983 10.59l17.018 88.223-5.872-59.049 29.021-1.892-.054-9.883L64.549 1 53.622 18.977z"></path><path d="M59.389 54.548l5.16-53.541-8.74 39.716-19.612 1.045 1.57 20.462-7.766 36.583 12.057-39.899z"></path><path d="M62.8 67.182l.549-10.453-15.979 3.755-.032 11.797-17.337 26.532 21.68-27.616zM65.711 62.394l14.841-4.731 1.509-12.532-15.899 2.095zM72.07 44.502l10.988-1.417 1.581-10.278-8.079-.373L64.549 1l8.43 30.967z"></path><path d="M87.413 31.294l1.256-9.506-9.544-2.694L64.549 1l14.483 22.437-.422 7z"></path></g></g><!----></svg>